<svg width="828" height="402" viewBox="0 0 828 402" fill="none" xmlns="http://www.w3.org/2000/svg">
<path d="M731.197 324V111.3H784.897V324H731.197Z" fill="#535C91"/>
<path d="M545.648 324L465.548 111.3H522.848L582.848 283.2H558.248L619.148 111.3H675.248L594.248 324H545.648Z" fill="#535C91"/>
<path d="M235.357 324V111.3H289.057V324H235.357ZM277.957 324V278.7H393.157V324H277.957ZM277.957 237.6V193.5H382.357V237.6H277.957ZM277.957 156.6V111.3H391.357V156.6H277.957Z" fill="#535C91"/>
<path d="M259.357 300V87.3H313.057V300H259.357ZM301.957 300V254.7H417.157V300H301.957ZM301.957 213.6V169.5H406.357V213.6H301.957ZM301.957 132.6V87.3H415.357V132.6H301.957Z" fill="white"/>
<path d="M557.648 300L477.548 87.3H534.848L594.848 259.2H570.248L631.148 87.3H687.248L606.248 300H557.648Z" fill="white"/>
<path d="M755.197 300V87.3H808.897V300H755.197Z" fill="white"/>
<path d="M19.2926 324V111.3H72.9926V324H19.2926ZM61.8926 324V277.8H164.493V324H61.8926Z" fill="#535C91"/>
<path d="M43.2926 300V87.3H96.9926V300H43.2926ZM85.8926 300V253.8H188.493V300H85.8926Z" fill="white"/>
</svg>
